<?xml version="1.0" encoding="UTF-8" standalone="no"?>
<!-- Created with Inkscape (http://www.inkscape.org/) -->

<svg
   width="1200"
   height="675"
   viewBox="0 0 317.5 178.59375"
   version="1.1"
   id="svg1"
   xml:space="preserve"
   xmlns:xlink="http://www.w3.org/1999/xlink"
   xmlns="http://www.w3.org/2000/svg"
   xmlns:svg="http://www.w3.org/2000/svg"><defs
     id="defs1"><linearGradient
       id="swatch12"><stop
         style="stop-color:#54c164;stop-opacity:1;"
         offset="0"
         id="stop12" /></linearGradient><linearGradient
       id="swatch46"><stop
         style="stop-color:#3c8f49;stop-opacity:1;"
         offset="0"
         id="stop46" /></linearGradient><linearGradient
       xlink:href="#swatch46"
       id="linearGradient69"
       gradientUnits="userSpaceOnUse"
       x1="676.27155"
       y1="503.30307"
       x2="766.35339"
       y2="503.30307" /><linearGradient
       xlink:href="#swatch12"
       id="linearGradient70"
       gradientUnits="userSpaceOnUse"
       x1="676.27094"
       y1="456.79547"
       x2="800.07941"
       y2="456.79547" /></defs><g
     id="layer1"
     transform="translate(-838.73238,-346.28258)"><path
       d="M 751.945 401.507 C 742.873 401.47 733.784 406.017 728.353 414.837 C 723.91 414.435 719.167 415.488 715.071 417.983 C 714.872 417.92 714.685 417.843 714.478 417.788 C 710.323 416.681 704.924 416.735 695.617 416.735 L 676.271 416.736 L 676.271 482.697 L 695.617 482.697 C 704.917 482.697 710.222 482.793 713.191 483.584 C 716.16 484.375 717.119 485.443 719.146 488.954 L 723.476 488.954 C 725.503 485.443 726.462 484.374 729.431 483.583 C 732.4 482.792 737.705 482.697 747.005 482.697 L 766.353 482.697 L 766.353 443.271 C 768.559 442.306 770.102 440.104 770.102 437.544 C 770.102 434.094 767.302 431.293 763.852 431.293 C 760.402 431.293 757.602 434.094 757.602 437.544 C 757.602 440.049 759.146 442.278 761.353 443.261 L 761.353 477.697 L 747.005 477.697 C 737.697 477.697 732.299 477.645 728.144 478.752 C 726.463 479.199 725.054 479.925 723.812 480.877 L 723.812 450.779 C 726.018 449.814 727.562 447.613 727.562 445.052 C 727.562 441.602 724.761 438.801 721.311 438.801 C 717.861 438.801 715.062 441.602 715.062 445.052 C 715.062 447.557 716.605 449.786 718.812 450.769 L 718.812 480.877 C 717.569 479.925 716.159 479.199 714.478 478.751 C 710.323 477.644 704.924 477.696 695.616 477.696 L 681.271 477.697 L 681.271 421.736 L 695.617 421.736 C 702.345 421.736 706.959 421.789 710.134 422.116 C 708.662 423.783 707.391 425.725 706.42 427.965 C 699.097 428.258 691.441 434.081 691.441 443.589 C 691.441 452.213 698.363 459.306 706.896 459.306 L 715.636 459.306 L 715.636 452.554 C 713.764 451.106 712.443 448.963 712.033 446.628 C 710.896 441.353 715.513 435.646 720.948 435.634 C 723.517 435.534 726.095 436.569 727.923 438.369 C 730 440.262 730.986 443.22 730.644 446.011 C 730.394 448.523 729.107 451.063 726.988 452.599 L 726.988 459.306 L 758.177 459.306 L 758.177 445.054 C 756.35 443.622 755.023 441.539 754.6 439.249 C 753.373 433.89 758.021 428.153 763.491 428.126 C 766.324 428.022 769.145 429.272 770.988 431.421 C 774.566 435.218 773.742 442.057 769.529 445.091 L 769.529 459.306 L 778.148 459.306 C 790.259 459.306 800.08 449.253 800.08 436.98 C 800.08 422.475 787.315 413.429 775.415 415 C 770.049 406.154 761.007 401.544 751.945 401.507 Z M 721.016 494.522 L 728.015 511.837 L 729.994 511.837 L 737.043 494.522 L 734.001 494.522 L 729.032 507.157 L 724.108 494.522 L 721.016 494.522 Z M 739.517 494.522 L 739.517 511.837 L 742.361 511.837 L 742.361 504.49 L 743.094 504.49 L 749.015 511.837 L 752.601 511.837 L 746.519 504.465 C 747.392 504.408 748.178 504.216 748.866 503.872 C 749.691 503.46 750.326 502.883 750.771 502.14 C 751.233 501.398 751.463 500.525 751.463 499.519 C 751.463 498.563 751.233 497.713 750.771 496.971 C 750.326 496.213 749.691 495.619 748.866 495.19 C 748.042 494.745 747.085 494.522 745.997 494.522 L 742.361 494.522 L 739.517 494.522 Z M 754.704 494.522 L 754.704 511.837 L 757.548 511.837 L 766.354 511.837 L 766.354 509.239 L 757.548 509.239 L 757.548 504.243 L 765.512 504.243 L 765.512 501.745 L 757.548 501.745 L 757.548 497.12 L 766.23 497.12 L 766.23 494.522 L 757.548 494.522 L 754.704 494.522 Z M 676.272 494.82 L 676.272 511.837 L 678.077 511.837 L 678.077 498.317 L 688.045 511.837 L 689.331 511.837 L 689.331 494.82 L 687.501 494.82 L 687.501 508.337 L 677.558 494.82 L 676.272 494.82 Z M 742.361 496.996 L 745.874 496.996 C 746.748 496.996 747.423 497.243 747.901 497.738 C 748.38 498.232 748.619 498.843 748.619 499.568 C 748.619 500.376 748.372 501.011 747.877 501.473 C 747.399 501.918 746.723 502.14 745.849 502.14 L 742.361 502.14 L 742.361 496.996 Z M 698.26 499.964 C 697.172 499.964 696.191 500.236 695.317 500.78 C 694.443 501.308 693.75 502.034 693.239 502.957 C 692.744 503.864 692.497 504.895 692.497 506.049 C 692.497 507.187 692.744 508.209 693.239 509.116 C 693.75 510.023 694.443 510.748 695.317 511.292 C 696.191 511.82 697.18 512.084 698.285 512.084 C 699.159 512.084 699.942 511.91 700.635 511.564 C 701.344 511.201 701.913 510.698 702.341 510.055 C 702.387 509.989 702.423 509.918 702.465 509.85 L 702.465 511.837 L 704.197 511.837 L 704.197 500.211 L 702.465 500.211 L 702.465 502.193 C 702.423 502.127 702.387 502.056 702.341 501.992 C 701.913 501.349 701.344 500.854 700.635 500.508 C 699.942 500.145 699.15 499.964 698.26 499.964 Z M 712.73 499.964 C 711.642 499.964 710.66 500.236 709.786 500.78 C 708.912 501.308 708.22 502.034 707.709 502.957 C 707.214 503.864 706.966 504.895 706.966 506.049 C 706.966 507.187 707.214 508.209 707.709 509.116 C 708.22 510.023 708.912 510.748 709.786 511.292 C 710.66 511.82 711.649 512.084 712.754 512.084 C 713.628 512.084 714.411 511.91 715.104 511.564 C 715.813 511.201 716.382 510.698 716.811 510.055 C 716.856 509.989 716.892 509.918 716.934 509.85 L 716.934 511.837 L 718.666 511.837 L 718.666 500.211 L 716.934 500.211 L 716.934 502.193 C 716.892 502.127 716.856 502.056 716.811 501.992 C 716.382 501.349 715.813 500.854 715.104 500.508 C 714.411 500.145 713.62 499.964 712.73 499.964 Z M 698.532 501.596 C 699.34 501.596 700.041 501.786 700.635 502.165 C 701.245 502.528 701.714 503.047 702.044 503.723 C 702.391 504.383 702.564 505.15 702.564 506.024 C 702.564 507.343 702.193 508.406 701.451 509.214 C 700.726 510.022 699.761 510.426 698.557 510.426 C 697.733 510.426 696.999 510.237 696.356 509.858 C 695.713 509.479 695.201 508.959 694.822 508.299 C 694.459 507.64 694.278 506.881 694.278 506.024 C 694.278 505.167 694.459 504.408 694.822 503.748 C 695.201 503.072 695.704 502.545 696.331 502.165 C 696.974 501.786 697.708 501.596 698.532 501.596 Z M 713.002 501.596 C 713.81 501.596 714.51 501.786 715.104 502.165 C 715.714 502.528 716.184 503.047 716.514 503.723 C 716.86 504.383 717.034 505.15 717.034 506.024 C 717.034 507.343 716.662 508.406 715.92 509.214 C 715.195 510.022 714.23 510.426 713.027 510.426 C 712.202 510.426 711.468 510.237 710.825 509.858 C 710.182 509.479 709.671 508.959 709.291 508.299 C 708.929 507.64 708.747 506.881 708.747 506.024 C 708.747 505.167 708.929 504.408 709.291 503.748 C 709.671 503.072 710.174 502.545 710.8 502.165 C 711.443 501.786 712.177 501.596 713.002 501.596 Z"
       style="fill:#54c164;fill-opacity:1"
       transform="translate(179.537, -23.8618)"
       id="g7" /><g
       id="g9"
       style="fill:#cccccc;fill-opacity:1"><path
         d="m 998.13129,413.35831 v -15.87326 h 1.19972 l 0.4845,2.00723 v 13.86603 z m 10.98211,0 -10.03618,-13.61225 0.25379,-2.26101 10.01309,13.61224 z m 0,0 -0.5076,-1.91495 v -13.95831 h 1.7073 v 15.87326 z m 9.7592,0.23071 q -1.5688,0 -2.8608,-0.76136 -1.269,-0.76136 -2.0303,-2.05337 -0.7383,-1.29201 -0.7383,-2.88395 0,-1.56887 0.7383,-2.83781 0.7613,-1.26894 2.0303,-2.00723 1.292,-0.76136 2.8608,-0.76136 1.592,0 2.8609,0.73829 1.269,0.73829 2.0072,2.0303 0.7614,1.26894 0.7614,2.83781 0,1.61501 -0.7614,2.90702 -0.7382,1.26894 -2.0072,2.0303 -1.2689,0.76136 -2.8609,0.76136 z m 0,-1.56887 q 1.1536,0 2.0303,-0.53064 0.8998,-0.53065 1.4074,-1.47659 0.5307,-0.94593 0.5307,-2.12258 0,-1.17665 -0.5307,-2.07645 -0.5076,-0.92286 -1.4074,-1.45351 -0.8767,-0.53064 -2.0303,-0.53064 -1.1305,0 -2.0303,0.53064 -0.8998,0.53065 -1.4073,1.45351 -0.5076,0.8998 -0.5076,2.07645 0,1.19972 0.5076,2.14566 0.5075,0.92286 1.4073,1.45351 0.8998,0.53064 2.0303,0.53064 z m 9.4825,1.33816 v -15.41183 h 1.615 v 15.41183 z m -2.7455,-9.39014 v -1.45352 h 7.0829 v 1.45352 z m 13.9121,9.62085 q -1.638,0 -2.9301,-0.73829 -1.292,-0.73829 -2.0533,-2.0303 -0.7383,-1.29201 -0.7383,-2.90702 0,-1.59194 0.7383,-2.86088 0.7383,-1.29201 2.0072,-2.0303 1.2689,-0.73829 2.8378,-0.73829 1.4766,0 2.6071,0.66908 1.1536,0.66907 1.7996,1.86879 0.6691,1.17666 0.6691,2.72245 0,0.18458 -0.023,0.43836 -0.023,0.23072 -0.092,0.55372 h -9.3902 v -1.38429 h 8.5134 l -0.5767,0.50757 q 0.023,-1.19972 -0.4153,-2.05337 -0.4153,-0.87672 -1.2228,-1.33815 -0.7845,-0.48451 -1.915,-0.48451 -1.1766,0 -2.0533,0.50758 -0.8768,0.50757 -1.3844,1.43044 -0.4845,0.89979 -0.4845,2.14566 0,1.24586 0.5076,2.1918 0.5307,0.94593 1.4535,1.47658 0.946,0.53065 2.1688,0.53065 0.992,0 1.8226,-0.34608 0.8306,-0.36914 1.4074,-1.08436 l 1.0382,1.06129 q -0.7614,0.89979 -1.8919,1.40737 -1.1074,0.4845 -2.3994,0.4845 z m 13.0124,0 q -1.2458,0 -2.2379,-0.50757 -0.9921,-0.50758 -1.6381,-1.3843 -0.6229,-0.89979 -0.7614,-2.07644 v -3.39153 q 0.1385,-1.19972 0.7845,-2.07644 0.646,-0.89979 1.6381,-1.3843 1.0151,-0.4845 2.2148,-0.4845 1.4997,0 2.6994,0.76136 1.1997,0.73829 1.8919,2.0303 0.7152,1.26894 0.7152,2.88395 0,1.59194 -0.6922,2.86088 -0.6921,1.26894 -1.9149,2.0303 -1.1997,0.73829 -2.6994,0.73829 z m -5.6064,-0.23071 v -16.3347 h 1.615 v 8.14428 l -0.323,2.60709 0.323,2.67631 v 2.90702 z m 5.3296,-1.31508 q 1.1535,0 2.0303,-0.50758 0.8767,-0.53065 1.3612,-1.45351 0.5076,-0.94594 0.5076,-2.14566 0,-1.22279 -0.5076,-2.14566 -0.4845,-0.92286 -1.3612,-1.45351 -0.8768,-0.53065 -2.0073,-0.53065 -1.1305,0 -2.0072,0.53065 -0.8537,0.53065 -1.3382,1.45351 -0.4845,0.92287 -0.4845,2.14566 0,1.19972 0.4845,2.14566 0.4845,0.92286 1.3382,1.45351 0.8537,0.50758 1.9842,0.50758 z m 13.0815,1.54579 q -1.5688,0 -2.8608,-0.76136 -1.269,-0.76136 -2.0303,-2.05337 -0.7383,-1.29201 -0.7383,-2.88395 0,-1.56887 0.7383,-2.83781 0.7613,-1.26894 2.0303,-2.00723 1.292,-0.76136 2.8608,-0.76136 1.592,0 2.8609,0.73829 1.2689,0.73829 2.0072,2.0303 0.7614,1.26894 0.7614,2.83781 0,1.61501 -0.7614,2.90702 -0.7383,1.26894 -2.0072,2.0303 -1.2689,0.76136 -2.8609,0.76136 z m 0,-1.56887 q 1.1536,0 2.0303,-0.53064 0.8998,-0.53065 1.4074,-1.47659 0.5306,-0.94593 0.5306,-2.12258 0,-1.17665 -0.5306,-2.07645 -0.5076,-0.92286 -1.4074,-1.45351 -0.8767,-0.53064 -2.0303,-0.53064 -1.1305,0 -2.0303,0.53064 -0.8998,0.53065 -1.4073,1.45351 -0.5076,0.8998 -0.5076,2.07645 0,1.19972 0.5076,2.14566 0.5075,0.92286 1.4073,1.45351 0.8998,0.53064 2.0303,0.53064 z m 13.1047,1.56887 q -1.5688,0 -2.8609,-0.76136 -1.2689,-0.76136 -2.0303,-2.05337 -0.7382,-1.29201 -0.7382,-2.88395 0,-1.56887 0.7382,-2.83781 0.7614,-1.26894 2.0303,-2.00723 1.2921,-0.76136 2.8609,-0.76136 1.592,0 2.8609,0.73829 1.2689,0.73829 2.0072,2.0303 0.7614,1.26894 0.7614,2.83781 0,1.61501 -0.7614,2.90702 -0.7383,1.26894 -2.0072,2.0303 -1.2689,0.76136 -2.8609,0.76136 z m 0,-1.56887 q 1.1536,0 2.0303,-0.53064 0.8998,-0.53065 1.4074,-1.47659 0.5306,-0.94593 0.5306,-2.12258 0,-1.17665 -0.5306,-2.07645 -0.5076,-0.92286 -1.4074,-1.45351 -0.8767,-0.53064 -2.0303,-0.53064 -1.1305,0 -2.0303,0.53064 -0.8998,0.53065 -1.4073,1.45351 -0.5076,0.8998 -0.5076,2.07645 0,1.19972 0.5076,2.14566 0.5075,0.92286 1.4073,1.45351 0.8998,0.53064 2.0303,0.53064 z m 15.1812,1.33816 -5.5372,-5.56026 5.4449,-5.2834 h 2.0072 l -5.9294,5.69869 0.069,-0.92286 6.0909,6.06783 z m -6.9907,0 v -16.3347 h 1.615 v 16.3347 z m 20.8336,0.23071 q -1.5458,0 -2.7686,-0.73829 -1.2228,-0.76136 -1.938,-2.0303 -0.6921,-1.26894 -0.6921,-2.86088 0,-1.61501 0.6921,-2.88395 0.7152,-1.29201 1.938,-2.0303 1.2228,-0.76136 2.7455,-0.76136 1.2459,0 2.2149,0.50757 0.9921,0.48451 1.592,1.3843 0.6229,0.87672 0.7613,2.05337 v 3.39153 q -0.1384,1.17665 -0.7613,2.07644 -0.5999,0.89979 -1.592,1.40737 -0.969,0.4845 -2.1918,0.4845 z m 0.2538,-1.54579 q 1.6842,0 2.6994,-1.13051 1.0382,-1.13051 1.0382,-2.97624 0,-1.22279 -0.4845,-2.14566 -0.4614,-0.94593 -1.3151,-1.45351 -0.8306,-0.53065 -1.9611,-0.53065 -1.1536,0 -2.0534,0.53065 -0.8767,0.53065 -1.4073,1.47658 -0.5076,0.92287 -0.5076,2.12259 0,1.19972 0.5076,2.12259 0.5306,0.92286 1.4304,1.45351 0.8998,0.53065 2.0534,0.53065 z m 3.6453,1.31508 v -2.90702 l 0.323,-2.67631 -0.323,-2.60709 v -2.65324 h 1.615 v 10.84366 z m 8.2135,0.23071 q -0.8767,0 -1.6843,-0.23071 -0.8075,-0.25379 -1.4765,-0.69215 -0.646,-0.43836 -1.1305,-1.03822 l 1.0382,-1.0613 q 0.646,0.78444 1.4535,1.17665 0.8306,0.36915 1.8457,0.36915 1.0844,0 1.6842,-0.41529 0.623,-0.41529 0.623,-1.15358 0,-0.69215 -0.4384,-1.08436 -0.4383,-0.39222 -1.1305,-0.62294 -0.6691,-0.23071 -1.4304,-0.43836 -0.7614,-0.23071 -1.4535,-0.55372 -0.6922,-0.34607 -1.1305,-0.94593 -0.4153,-0.59986 -0.4153,-1.56887 0,-0.92286 0.4383,-1.59194 0.4615,-0.69215 1.292,-1.06129 0.8537,-0.39222 2.0073,-0.39222 1.2228,0 2.2148,0.43836 0.9921,0.43836 1.592,1.29201 l -1.0382,1.03822 q -0.4845,-0.62293 -1.2228,-0.94593 -0.7153,-0.34608 -1.6151,-0.34608 -1.0382,0 -1.5919,0.41529 -0.5306,0.39222 -0.5306,1.03822 0,0.62294 0.4383,0.99208 0.4384,0.34607 1.1075,0.57679 0.6921,0.20765 1.4535,0.43836 0.7613,0.20765 1.4535,0.57679 0.6921,0.34608 1.1074,0.96901 0.4384,0.59986 0.4384,1.63808 0,1.45351 -1.0613,2.33023 -1.0382,0.85365 -2.8378,0.85365 z m 16.127,0 q -1.5458,0 -2.7686,-0.73829 -1.2228,-0.76136 -1.938,-2.0303 -0.6921,-1.26894 -0.6921,-2.86088 0,-1.61501 0.6921,-2.88395 0.7152,-1.29201 1.938,-2.0303 1.2228,-0.76136 2.7455,-0.76136 1.2459,0 2.2149,0.50757 0.9921,0.48451 1.5919,1.3843 0.623,0.87672 0.7614,2.05337 v 3.39153 q -0.1384,1.17665 -0.7614,2.07644 -0.5998,0.89979 -1.5919,1.40737 -0.969,0.4845 -2.1918,0.4845 z m 0.2538,-1.54579 q 1.6842,0 2.6994,-1.13051 1.0382,-1.13051 1.0382,-2.97624 0,-1.22279 -0.4845,-2.14566 -0.4614,-0.94593 -1.3151,-1.45351 -0.8306,-0.53065 -1.9611,-0.53065 -1.1535,0 -2.0533,0.53065 -0.8768,0.53065 -1.4074,1.47658 -0.5076,0.92287 -0.5076,2.12259 0,1.19972 0.5076,2.12259 0.5306,0.92286 1.4304,1.45351 0.8998,0.53065 2.0534,0.53065 z m 3.6453,1.31508 v -2.90702 l 0.323,-2.67631 -0.323,-2.60709 v -2.65324 h 1.615 v 10.84366 z"
         id="path3" /><path
         id="path4"
         d="M 1062.4319 419.90238 L 1062.4319 436.51428 L 1064.9697 436.51428 L 1064.9697 419.90238 L 1062.4319 419.90238 z M 996.65452 420.36385 L 1003.1838 436.51428 L 1005.0297 436.51428 L 1011.605 420.36385 L 1008.7675 420.36385 L 1004.1321 432.14917 L 999.53859 420.36385 L 996.65452 420.36385 z M 1014.8581 420.36385 C 1014.4274 420.36385 1014.0662 420.51034 1013.7739 420.80258 C 1013.497 421.09482 1013.3584 421.45608 1013.3584 421.88675 C 1013.3584 422.31742 1013.497 422.67868 1013.7739 422.97092 C 1014.0662 423.26316 1014.4274 423.40966 1014.8581 423.40966 C 1015.3041 423.40966 1015.6659 423.26316 1015.9428 422.97092 C 1016.2196 422.67868 1016.3577 422.31742 1016.3577 421.88675 C 1016.3577 421.45608 1016.2196 421.09482 1015.9428 420.80258 C 1015.666 420.51034 1015.3041 420.36385 1014.8581 420.36385 z M 1030.0856 420.82532 L 1030.0856 425.44002 L 1027.432 425.44002 L 1027.432 427.74686 L 1030.0856 427.74686 L 1030.0856 436.51428 L 1032.6234 436.51428 L 1032.6234 427.74686 L 1035.2765 427.74686 L 1035.2765 425.44002 L 1032.6234 425.44002 L 1032.6234 420.82532 L 1030.0856 420.82532 z M 1024.3867 425.20903 C 1023.1255 425.20903 1022.1798 425.64747 1021.5491 426.52419 C 1021.5326 426.54727 1021.5187 426.57256 1021.5026 426.59602 L 1021.5026 425.44002 L 1018.9648 425.44002 L 1018.9648 436.51428 L 1021.5026 436.51428 L 1021.5026 430.35393 C 1021.5026 429.40031 1021.7337 428.70037 1022.1951 428.25432 C 1022.6565 427.80827 1023.2409 427.58563 1023.9485 427.58563 C 1024.2715 427.58563 1024.5561 427.63132 1024.8022 427.7236 C 1025.0483 427.81589 1025.2709 427.96974 1025.4709 428.18507 L 1027.1322 426.4782 C 1026.7477 426.03215 1026.3324 425.70871 1025.8863 425.50875 C 1025.4403 425.3088 1024.9404 425.20903 1024.3867 425.20903 z M 1053.6877 425.20903 C 1052.688 425.20903 1051.7806 425.47052 1050.9654 425.99348 C 1050.1656 426.50105 1049.5271 427.19312 1049.0503 428.06984 C 1048.5888 428.93117 1048.3583 429.90784 1048.3583 430.99989 C 1048.3583 432.07657 1048.5888 433.05322 1049.0503 433.92994 C 1049.5271 434.79128 1050.1656 435.47599 1050.9654 435.98356 C 1051.7806 436.49114 1052.688 436.74476 1053.6877 436.74476 C 1054.5337 436.74476 1055.2872 436.5678 1055.9486 436.21404 C 1056.3934 435.96572 1056.7666 435.65309 1057.0793 435.28645 L 1057.0793 436.51428 L 1059.6171 436.51428 L 1059.6171 425.44002 L 1057.0793 425.44002 L 1057.0793 426.68387 C 1056.7572 426.31434 1056.3765 426.00403 1055.9258 425.763 C 1055.2798 425.39385 1054.5337 425.20903 1053.6877 425.20903 z M 1013.5894 425.44002 L 1013.5894 436.51428 L 1016.1272 436.51428 L 1016.1272 425.44002 L 1013.5894 425.44002 z M 1036.8454 425.44002 L 1036.8454 431.87684 C 1036.8454 432.83046 1037.0454 433.67638 1037.4453 434.41467 C 1037.8606 435.13758 1038.4298 435.70677 1039.1527 436.12206 C 1039.891 436.53734 1040.7291 436.74476 1041.6673 436.74476 C 1042.6209 436.74476 1043.459 436.5447 1044.1819 436.1448 C 1044.9048 435.72951 1045.4666 435.16084 1045.8665 434.43792 C 1046.2818 433.69964 1046.4892 432.84585 1046.4892 431.87684 L 1046.4892 425.44002 L 1043.9514 425.44002 L 1043.9514 431.7616 C 1043.9514 432.57679 1043.7513 433.20742 1043.3514 433.65347 C 1042.9669 434.08414 1042.4056 434.29943 1041.6673 434.29943 C 1041.1905 434.29943 1040.7751 434.19914 1040.4214 433.99919 C 1040.083 433.79924 1039.8215 433.51464 1039.6369 433.1455 C 1039.4677 432.76097 1039.3832 432.29993 1039.3832 431.7616 L 1039.3832 425.44002 L 1036.8454 425.44002 z M 1054.1027 427.60837 C 1054.7334 427.60837 1055.2794 427.75486 1055.7408 428.0471 C 1056.2176 428.32396 1056.5867 428.71568 1056.8483 429.22325 C 1057.1097 429.73083 1057.2405 430.31577 1057.2405 430.97715 C 1057.2405 431.96154 1056.9486 432.7686 1056.3641 433.39923 C 1055.795 434.02985 1055.041 434.34542 1054.1027 434.34542 C 1053.4875 434.34542 1052.9414 434.2068 1052.4646 433.92994 C 1052.0032 433.6377 1051.6345 433.23811 1051.3576 432.73053 C 1051.0962 432.22296 1050.9654 431.63854 1050.9654 430.97715 C 1050.9654 430.31577 1051.0962 429.73083 1051.3576 429.22325 C 1051.6345 428.71568 1052.0032 428.32396 1052.4646 428.0471 C 1052.9414 427.75486 1053.4875 427.60837 1054.1027 427.60837 z M 1079.5973 443.05859 L 1079.5973 459.66997 L 1082.1351 459.66997 L 1082.1351 453.27915 C 1082.1351 452.78696 1082.2427 452.34851 1082.4581 451.96398 C 1082.6734 451.57946 1082.9732 451.27963 1083.3578 451.0643 C 1083.7423 450.84896 1084.1807 450.74132 1084.6729 450.74132 C 1085.4112 450.74132 1086.0108 450.97971 1086.4723 451.45652 C 1086.9491 451.93333 1087.1875 452.54086 1087.1875 453.27915 L 1087.1875 459.66997 L 1089.7258 459.66997 L 1089.7258 452.72518 C 1089.7258 451.86384 1089.5411 451.11033 1089.1719 450.46433 C 1088.8027 449.80295 1088.295 449.28784 1087.649 448.91869 C 1087.003 448.54955 1086.2647 448.36472 1085.4341 448.36472 C 1084.6189 448.36472 1083.8806 448.5569 1083.2193 448.94143 C 1082.7965 449.18304 1082.4393 449.49396 1082.1351 449.86075 L 1082.1351 443.05859 L 1079.5973 443.05859 z M 997.85445 443.52006 L 997.85445 459.66997 L 1000.5075 459.66997 L 1000.5075 452.81768 L 1001.1912 452.81768 L 1006.7139 459.66997 L 1010.0594 459.66997 L 1004.3864 452.79391 C 1005.2001 452.74094 1005.9332 452.56206 1006.5754 452.24097 C 1007.3444 451.85644 1007.9367 451.31823 1008.352 450.62608 C 1008.7827 449.93394 1008.998 449.11848 1008.998 448.18024 C 1008.998 447.28814 1008.7827 446.49631 1008.352 445.80415 C 1007.9367 445.09663 1007.3444 444.54266 1006.5754 444.14276 C 1005.8063 443.72747 1004.9142 443.52006 1003.899 443.52006 L 1000.5075 443.52006 L 997.85445 443.52006 z M 1000.5075 445.82689 L 1003.7838 445.82689 C 1004.599 445.82689 1005.2296 446.05793 1005.6757 446.51936 C 1006.1217 446.98079 1006.3449 447.54946 1006.3449 448.22623 C 1006.3449 448.9799 1006.1139 449.57219 1005.6524 450.00286 C 1005.2064 450.41815 1004.5757 450.62608 1003.7605 450.62608 L 1000.5075 450.62608 L 1000.5075 445.82689 z M 1016.3577 448.36472 C 1015.2964 448.36472 1014.3276 448.61886 1013.4509 449.12643 C 1012.5896 449.63401 1011.9048 450.32607 1011.3973 451.20279 C 1010.8897 452.06413 1010.6361 453.04079 1010.6361 454.13284 C 1010.6361 455.2249 1010.8897 456.20943 1011.3973 457.08615 C 1011.9202 457.96287 1012.6202 458.65494 1013.4969 459.16251 C 1014.389 459.6547 1015.3887 459.90045 1016.4962 459.90045 L 1016.4967 459.90045 C 1017.3581 459.90045 1018.173 459.73924 1018.9421 459.41624 C 1019.7111 459.09324 1020.3648 458.61646 1020.9032 457.98584 L 1019.2883 456.3477 C 1018.9499 456.73222 1018.5346 457.02418 1018.0424 457.22413 C 1017.5656 457.42408 1017.0425 457.52437 1016.4735 457.52437 C 1015.8121 457.52437 1015.2277 457.38575 1014.7201 457.10889 C 1014.2125 456.81665 1013.8202 456.40919 1013.5434 455.88623 C 1013.4113 455.63673 1013.3133 455.36653 1013.2442 455.07852 L 1021.5031 455.07852 C 1021.5491 454.8478 1021.5798 454.6404 1021.5951 454.45582 C 1021.6258 454.25587 1021.6411 454.06369 1021.6411 453.87911 C 1021.6411 452.81782 1021.4106 451.87162 1020.9492 451.04104 C 1020.5031 450.21046 1019.8803 449.55674 1019.0805 449.07992 C 1018.2961 448.60311 1017.3882 448.36472 1016.3577 448.36472 z M 1027.4092 448.36472 C 1026.5632 448.36472 1025.8328 448.50334 1025.2176 448.7802 C 1024.6178 449.05706 1024.1484 449.4493 1023.81 449.95687 C 1023.487 450.46445 1023.3252 451.07197 1023.3252 451.7795 C 1023.3252 452.44089 1023.4639 452.9791 1023.7407 453.39439 C 1024.0176 453.80967 1024.3715 454.14048 1024.8022 454.38658 C 1025.2482 454.61729 1025.7097 454.80211 1026.1866 454.94055 C 1026.6788 455.07897 1027.1398 455.21708 1027.5705 455.35551 C 1028.0165 455.47856 1028.3783 455.63241 1028.6552 455.81698 C 1028.932 456.00155 1029.0701 456.26305 1029.0701 456.60143 C 1029.0701 456.92443 1028.9241 457.1707 1028.6319 457.33988 C 1028.3396 457.50908 1027.9091 457.59362 1027.34 457.59362 C 1026.7093 457.59362 1026.1401 457.48597 1025.6326 457.27064 C 1025.1404 457.03992 1024.702 456.70125 1024.3174 456.2552 L 1022.7025 457.8706 C 1023.0563 458.30127 1023.4717 458.67041 1023.9485 458.97803 C 1024.4253 459.27027 1024.9482 459.50078 1025.5174 459.66997 C 1026.0864 459.82378 1026.6787 459.90045 1027.294 459.90045 C 1028.586 459.90045 1029.6089 459.58539 1030.3625 458.95477 C 1031.1162 458.32415 1031.4927 457.47036 1031.4927 456.39369 C 1031.4927 455.71692 1031.3545 455.17083 1031.0777 454.75555 C 1030.8009 454.32487 1030.4391 453.98672 1029.9931 453.74062 C 1029.5624 453.47915 1029.1008 453.27909 1028.6086 453.14066 C 1028.1318 452.98685 1027.6708 452.84823 1027.2248 452.72518 C 1026.7941 452.60213 1026.4402 452.45616 1026.1633 452.28696 C 1025.8865 452.11778 1025.7478 451.87939 1025.7478 451.57176 C 1025.7478 451.27952 1025.8865 451.05636 1026.1633 450.90255 C 1026.4402 450.74874 1026.8324 450.67207 1027.34 450.67207 C 1027.8783 450.67207 1028.3551 450.77184 1028.7704 450.9718 C 1029.1857 451.17175 1029.5548 451.47209 1029.8778 451.872 L 1031.4927 450.2566 C 1031.0313 449.62598 1030.4547 449.15707 1029.7626 448.84945 C 1029.0858 448.52644 1028.3013 448.36472 1027.4092 448.36472 z M 1038.5987 448.36472 C 1037.5375 448.36472 1036.5687 448.61886 1035.6919 449.12643 C 1034.8306 449.63401 1034.1459 450.32607 1033.6383 451.20279 C 1033.1307 452.06413 1032.8771 453.04079 1032.8771 454.13284 C 1032.8771 455.2249 1033.1307 456.20943 1033.6383 457.08615 C 1034.1612 457.96287 1034.8612 458.65494 1035.7379 459.16251 C 1036.6301 459.6547 1037.6298 459.90045 1038.7372 459.90045 L 1038.7377 459.90045 C 1039.5991 459.90045 1040.4141 459.73924 1041.1831 459.41624 C 1041.9521 459.09324 1042.6059 458.61646 1043.1442 457.98584 L 1041.5293 456.3477 C 1041.1909 456.73222 1040.7755 457.02418 1040.2834 457.22413 C 1039.8065 457.42408 1039.2836 457.52437 1038.7145 457.52437 C 1038.0531 457.52437 1037.4687 457.38575 1036.9611 457.10889 C 1036.4536 456.81665 1036.0613 456.40919 1035.7844 455.88623 C 1035.6523 455.63673 1035.5543 455.36653 1035.4852 455.07852 L 1043.7442 455.07852 C 1043.7902 454.8478 1043.8208 454.6404 1043.8361 454.45582 C 1043.8668 454.25587 1043.8821 454.06369 1043.8821 453.87911 C 1043.8821 452.81782 1043.6516 451.87162 1043.1902 451.04104 C 1042.7441 450.21046 1042.1214 449.55674 1041.3216 449.07992 C 1040.5371 448.60311 1039.6293 448.36472 1038.5987 448.36472 z M 1050.5499 448.36472 C 1049.5501 448.36472 1048.6428 448.62621 1047.8276 449.14917 C 1047.0278 449.65674 1046.3893 450.34881 1045.9125 451.22553 C 1045.4511 452.08687 1045.2206 453.06405 1045.2206 454.1561 C 1045.2206 455.23278 1045.4511 456.20943 1045.9125 457.08615 C 1046.3893 457.94749 1047.0278 458.63168 1047.8276 459.13926 C 1048.6428 459.64683 1049.5501 459.90045 1050.5499 459.90045 C 1051.3959 459.90045 1052.1494 459.72401 1052.8108 459.37025 C 1053.2557 459.12193 1053.6288 458.80878 1053.9415 458.44214 L 1053.9415 459.66997 L 1056.4793 459.66997 L 1056.4793 448.59571 L 1053.9415 448.59571 L 1053.9415 449.83957 C 1053.6194 449.4701 1053.2386 449.15968 1052.788 448.91869 C 1052.142 448.54955 1051.3959 448.36472 1050.5499 448.36472 z M 1064.716 448.36472 C 1063.4547 448.36472 1062.509 448.80317 1061.8784 449.67989 C 1061.8608 449.70465 1061.8491 449.73477 1061.8319 449.75998 L 1061.8319 448.59571 L 1059.2941 448.59571 L 1059.2941 459.66997 L 1061.8319 459.66997 L 1061.8319 453.50963 C 1061.8319 452.556 1062.0629 451.85658 1062.5244 451.41053 C 1062.9858 450.96448 1063.5703 450.74132 1064.2778 450.74132 C 1064.6008 450.74132 1064.8853 450.78753 1065.1315 450.87981 C 1065.3775 450.9721 1065.6002 451.12595 1065.8002 451.34128 L 1067.4616 449.63389 C 1067.077 449.18784 1066.6617 448.86491 1066.2157 448.66496 C 1065.7696 448.46501 1065.2697 448.36472 1064.716 448.36472 z M 1073.4602 448.36472 C 1072.3681 448.36472 1071.3762 448.61886 1070.4841 449.12643 C 1069.6074 449.63401 1068.9148 450.32607 1068.4072 451.20279 C 1067.8997 452.06413 1067.6461 453.04079 1067.6461 454.13284 C 1067.6461 455.20952 1067.8997 456.18617 1068.4072 457.0629 C 1068.9148 457.93962 1069.6074 458.63168 1070.4841 459.13926 C 1071.3762 459.64683 1072.3681 459.90045 1073.4602 459.90045 C 1074.3215 459.90045 1075.1212 459.73924 1075.8595 459.41624 C 1076.6132 459.07786 1077.2516 458.60108 1077.7746 457.98584 L 1076.1132 456.3017 C 1075.7902 456.68623 1075.398 456.97818 1074.9366 457.17814 C 1074.4905 457.36271 1073.9985 457.45512 1073.4602 457.45512 C 1072.8296 457.45512 1072.2682 457.3165 1071.776 457.03964 C 1071.2992 456.7474 1070.9222 456.35516 1070.6454 455.86297 C 1070.3838 455.3554 1070.2531 454.77885 1070.2531 454.13284 C 1070.2531 453.47146 1070.3838 452.89439 1070.6454 452.4022 C 1070.9222 451.91001 1071.2992 451.52564 1071.776 451.24878 C 1072.2682 450.95654 1072.8296 450.81057 1073.4602 450.81057 C 1073.9985 450.81057 1074.4905 450.91034 1074.9366 451.11029 C 1075.398 451.29486 1075.7902 451.57946 1076.1132 451.96398 L 1077.7746 450.27985 C 1077.2516 449.66461 1076.6132 449.1957 1075.8595 448.8727 C 1075.1212 448.53431 1074.3215 448.36472 1073.4602 448.36472 z M 1016.3122 450.69533 C 1016.9275 450.69533 1017.4426 450.8182 1017.8579 451.0643 C 1018.2885 451.31039 1018.6193 451.6643 1018.8501 452.12573 C 1018.9783 452.3821 1019.0684 452.67933 1019.1348 453.00216 L 1013.2545 453.00216 C 1013.319 452.74536 1013.405 452.50465 1013.5207 452.28696 C 1013.7821 451.77939 1014.1513 451.38715 1014.6281 451.11029 C 1015.1049 450.83343 1015.6662 450.69533 1016.3122 450.69533 z M 1038.5533 450.69533 C 1039.1685 450.69533 1039.6836 450.8182 1040.0989 451.0643 C 1040.5296 451.31039 1040.8604 451.6643 1041.0911 452.12573 C 1041.2194 452.3821 1041.3094 452.67933 1041.3758 453.00216 L 1035.4956 453.00216 C 1035.5601 452.74536 1035.6461 452.50465 1035.7617 452.28696 C 1036.0232 451.77939 1036.3923 451.38715 1036.8691 451.11029 C 1037.3459 450.83343 1037.9073 450.69533 1038.5533 450.69533 z M 1050.9654 450.76457 C 1051.596 450.76457 1052.1421 450.91055 1052.6036 451.20279 C 1053.0804 451.47965 1053.4495 451.87189 1053.711 452.37946 C 1053.9725 452.88704 1054.1032 453.47146 1054.1032 454.13284 C 1054.1032 455.11723 1053.8107 455.92481 1053.2263 456.55544 C 1052.6572 457.18606 1051.9037 457.50111 1050.9654 457.50111 C 1050.3502 457.50111 1049.8041 457.36301 1049.3273 457.08615 C 1048.8659 456.79391 1048.4967 456.39381 1048.2199 455.88623 C 1047.9584 455.37865 1047.8276 454.79423 1047.8276 454.13284 C 1047.8276 453.47146 1047.9584 452.88704 1048.2199 452.37946 C 1048.4967 451.87189 1048.8659 451.47965 1049.3273 451.20279 C 1049.8041 450.91055 1050.3502 450.76457 1050.9654 450.76457 z M 997.85445 466.67575 L 997.85445 482.82567 L 1000.5075 482.82567 L 1008.721 482.82567 L 1008.721 480.40308 L 1000.5075 480.40308 L 1000.5075 475.74289 L 1007.9365 475.74289 L 1007.9365 473.4128 L 1000.5075 473.4128 L 1000.5075 469.09834 L 1008.6057 469.09834 L 1008.6057 466.67575 L 1000.5075 466.67575 L 997.85445 466.67575 z M 1036.8913 466.67575 C 1036.4607 466.67575 1036.0994 466.82172 1035.8072 467.11396 C 1035.5303 467.4062 1035.3917 467.76799 1035.3917 468.19865 C 1035.3917 468.62933 1035.5303 468.99058 1035.8072 469.28282 C 1036.0994 469.57506 1036.4607 469.72104 1036.8913 469.72104 C 1037.3374 469.72104 1037.6992 469.57506 1037.976 469.28282 C 1038.2529 468.99058 1038.3915 468.62933 1038.3915 468.19865 C 1038.3915 467.76799 1038.2529 467.4062 1037.976 467.11396 C 1037.6992 466.82172 1037.3374 466.67575 1036.8913 466.67575 z M 1122.2102 467.13722 L 1122.2102 471.75141 L 1119.5571 471.75141 L 1119.5571 474.05876 L 1122.2102 474.05876 L 1122.2102 482.82567 L 1124.7485 482.82567 L 1124.7485 474.05876 L 1127.4016 474.05876 L 1127.4016 471.75141 L 1124.7485 471.75141 L 1124.7485 467.13722 L 1122.2102 467.13722 z M 1016.9577 471.52093 C 1016.1425 471.52093 1015.4042 471.71311 1014.7428 472.09764 C 1014.3202 472.33915 1013.9628 472.64934 1013.6587 473.01593 L 1013.6587 471.75141 L 1011.1208 471.75141 L 1011.1208 482.82567 L 1013.6587 482.82567 L 1013.6587 476.43484 C 1013.6587 475.94265 1013.7663 475.5042 1013.9816 475.11968 C 1014.197 474.73515 1014.4968 474.43532 1014.8813 474.21999 C 1015.2659 474.00466 1015.7044 473.89701 1016.1965 473.89701 C 1016.9348 473.89701 1017.5345 474.1354 1017.9959 474.61221 C 1018.4727 475.08903 1018.7111 475.69656 1018.7111 476.43484 L 1018.7111 482.82567 L 1021.2489 482.82567 L 1021.2489 475.88139 C 1021.2489 475.15848 1021.0646 474.46641 1020.6954 473.80503 C 1020.3263 473.12826 1019.8185 472.58217 1019.1725 472.16689 C 1018.5265 471.73621 1017.7883 471.52093 1016.9577 471.52093 z M 1046.42 471.52093 C 1045.1587 471.52093 1044.2131 471.95886 1043.5824 472.83558 C 1043.5648 472.86016 1043.5535 472.89014 1043.5364 472.91516 L 1043.5364 471.75141 L 1040.9981 471.75141 L 1040.9981 482.82567 L 1043.5364 482.82567 L 1043.5364 476.66584 C 1043.5364 475.71221 1043.767 475.01228 1044.2284 474.56622 C 1044.6898 474.12018 1045.2742 473.89701 1045.9817 473.89701 C 1046.3047 473.89701 1046.5894 473.94322 1046.8354 474.03551 C 1047.0816 474.12779 1047.3047 474.28164 1047.5046 474.49698 L 1049.1655 472.78959 C 1048.781 472.34353 1048.3657 472.02061 1047.9196 471.82065 C 1047.4735 471.6207 1046.9736 471.52093 1046.42 471.52093 z M 1055.1414 471.52093 C 1054.0647 471.52093 1053.0881 471.78242 1052.2113 472.30538 C 1051.3346 472.81295 1050.6347 473.49714 1050.1117 474.35848 C 1049.6041 475.21982 1049.35 476.18861 1049.35 477.26528 C 1049.35 478.34195 1049.6041 479.31913 1050.1117 480.19585 C 1050.6347 481.07257 1051.3346 481.77199 1052.2113 482.29495 C 1053.0881 482.80252 1054.0647 483.05666 1055.1414 483.05666 C 1056.2335 483.05666 1057.2175 482.80252 1058.0942 482.29495 C 1058.9709 481.77199 1059.663 481.07257 1060.1705 480.19585 C 1060.6935 479.31913 1060.9555 478.34195 1060.9555 477.26528 C 1060.9555 476.18861 1060.6935 475.21982 1060.1705 474.35848 C 1059.663 473.48176 1058.9709 472.7897 1058.0942 472.28212 C 1057.2175 471.77455 1056.2335 471.52093 1055.1414 471.52093 z M 1068.892 471.52093 C 1068.0768 471.52093 1067.3385 471.71311 1066.6771 472.09764 C 1066.2542 472.33934 1065.8967 472.64999 1065.5924 473.01696 L 1065.5924 471.75141 L 1063.0546 471.75141 L 1063.0546 482.82567 L 1065.5924 482.82567 L 1065.5924 476.43484 C 1065.5924 475.94265 1065.7001 475.5042 1065.9154 475.11968 C 1066.1307 474.73515 1066.4311 474.43532 1066.8156 474.21999 C 1067.2001 474.00466 1067.6381 473.89701 1068.1303 473.89701 C 1068.8686 473.89701 1069.4688 474.1354 1069.9302 474.61221 C 1070.407 475.08903 1070.6454 475.69656 1070.6454 476.43484 L 1070.6454 482.82567 L 1073.1832 482.82567 L 1073.1832 475.88139 C 1073.1832 475.15848 1072.9989 474.46641 1072.6297 473.80503 C 1072.2606 473.12826 1071.7528 472.58217 1071.1068 472.16689 C 1070.4608 471.73621 1069.7225 471.52093 1068.892 471.52093 z M 1081.4891 471.52093 C 1080.7047 471.52093 1079.9969 471.69736 1079.3663 472.05113 C 1078.9551 472.27176 1078.6054 472.55772 1078.3054 472.89604 L 1078.3054 471.75141 L 1075.767 471.75141 L 1075.767 482.82567 L 1078.3054 482.82567 L 1078.3054 476.2271 C 1078.3054 475.73491 1078.413 475.32009 1078.6283 474.9817 C 1078.8437 474.62793 1079.1282 474.35856 1079.482 474.174 C 1079.8512 473.98943 1080.266 473.89701 1080.7274 473.89701 C 1081.4042 473.89701 1081.9734 474.10494 1082.4348 474.52023 C 1082.8963 474.92014 1083.1273 475.48881 1083.1273 476.2271 L 1083.1273 482.82567 L 1085.6651 482.82567 L 1085.6651 476.2271 C 1085.6651 475.73491 1085.7727 475.32009 1085.9881 474.9817 C 1086.2034 474.62793 1086.4954 474.35856 1086.8645 474.174 C 1087.2337 473.98943 1087.6416 473.89701 1088.0877 473.89701 C 1088.7644 473.89701 1089.3331 474.10494 1089.7946 474.52023 C 1090.256 474.92014 1090.487 475.48881 1090.487 476.2271 L 1090.487 482.82567 L 1093.0249 482.82567 L 1093.0249 475.67365 C 1093.0249 474.81231 1092.8327 474.07404 1092.4482 473.4588 C 1092.0636 472.84355 1091.548 472.36677 1090.902 472.02839 C 1090.256 471.69001 1089.5335 471.52093 1088.7337 471.52093 C 1087.9492 471.52093 1087.2262 471.69736 1086.5648 472.05113 C 1085.9581 472.36893 1085.457 472.8141 1085.0538 473.37611 C 1084.6903 472.80262 1084.2121 472.3507 1083.6115 472.02839 C 1082.9808 471.69001 1082.2735 471.52093 1081.4891 471.52093 z M 1100.6384 471.52093 C 1099.5771 471.52093 1098.6083 471.77455 1097.7316 472.28212 C 1096.8702 472.7897 1096.1855 473.48176 1095.6779 474.35848 C 1095.1703 475.21982 1094.9167 476.19648 1094.9167 477.28854 C 1094.9167 478.3806 1095.1703 479.36513 1095.6779 480.24185 C 1096.2009 481.11856 1096.9009 481.81063 1097.7776 482.3182 C 1098.6697 482.8104 1099.6695 483.05666 1100.7769 483.05666 L 1100.7774 483.05666 C 1101.6387 483.05666 1102.4536 482.89494 1103.2227 482.57194 C 1103.9917 482.24893 1104.6455 481.77215 1105.1838 481.14153 L 1103.5689 479.50339 C 1103.2306 479.88792 1102.8152 480.18038 1102.323 480.38034 C 1101.8462 480.58029 1101.3232 480.68006 1100.7541 480.68006 C 1100.0927 480.68006 1099.5083 480.54196 1099.0007 480.2651 C 1098.4931 479.97286 1098.1009 479.56488 1097.8241 479.04192 C 1097.6922 478.79289 1097.5965 478.52212 1097.5274 478.23473 L 1105.7838 478.23473 C 1105.8298 478.00401 1105.8604 477.79609 1105.8758 477.61151 C 1105.9064 477.41156 1105.9218 477.21938 1105.9218 477.03481 C 1105.9218 475.97351 1105.6912 475.02783 1105.2298 474.19725 C 1104.7837 473.36667 1104.1605 472.71295 1103.3607 472.23613 C 1102.5762 471.75932 1101.6689 471.52093 1100.6384 471.52093 z M 1113.789 471.52093 C 1112.9738 471.52093 1112.236 471.71311 1111.5746 472.09764 C 1111.1518 472.33925 1110.7942 472.64965 1110.49 473.01645 L 1110.49 471.75141 L 1107.9521 471.75141 L 1107.9521 482.82567 L 1110.49 482.82567 L 1110.49 476.43484 C 1110.49 475.94265 1110.5976 475.5042 1110.8129 475.11968 C 1111.0283 474.73515 1111.3281 474.43532 1111.7126 474.21999 C 1112.0971 474.00466 1112.5356 473.89701 1113.0278 473.89701 C 1113.766 473.89701 1114.3662 474.1354 1114.8277 474.61221 C 1115.3045 475.08903 1115.5429 475.69656 1115.5429 476.43484 L 1115.5429 482.82567 L 1118.0807 482.82567 L 1118.0807 475.88139 C 1118.0807 475.15848 1117.8959 474.46641 1117.5267 473.80503 C 1117.1576 473.12826 1116.6503 472.58217 1116.0043 472.16689 C 1115.3583 471.73621 1114.6196 471.52093 1113.789 471.52093 z M 1022.5181 471.75141 L 1027.5705 482.82567 L 1029.0474 482.82567 L 1034.0998 471.75141 L 1031.4007 471.75141 L 1028.3575 478.83366 L 1025.3329 471.75141 L 1022.5181 471.75141 z M 1035.6227 471.75141 L 1035.6227 482.82567 L 1038.1605 482.82567 L 1038.1605 471.75141 L 1035.6227 471.75141 z M 1100.5929 473.85102 C 1101.2081 473.85102 1101.7233 473.97389 1102.1385 474.21999 C 1102.5692 474.46608 1102.9 474.81999 1103.1307 475.28142 C 1103.2589 475.53766 1103.3485 475.83522 1103.4149 476.15786 L 1097.5424 476.15786 C 1097.6068 475.90284 1097.6859 475.65903 1097.8008 475.44265 C 1098.0623 474.93508 1098.4319 474.54284 1098.9087 474.26598 C 1099.3855 473.98912 1099.9469 473.85102 1100.5929 473.85102 z M 1055.1414 473.96626 C 1055.772 473.96626 1056.3254 474.11224 1056.8023 474.40448 C 1057.2791 474.68134 1057.6561 475.06622 1057.933 475.55841 C 1058.2098 476.0506 1058.3484 476.61928 1058.3484 477.26528 C 1058.3484 477.91129 1058.2098 478.48835 1057.933 478.99593 C 1057.6715 479.5035 1057.2945 479.90361 1056.8023 480.19585 C 1056.3254 480.47271 1055.772 480.61081 1055.1414 480.61081 C 1054.5261 480.61081 1053.9721 480.47271 1053.48 480.19585 C 1053.0031 479.90361 1052.6262 479.5035 1052.3493 478.99593 C 1052.0878 478.48835 1051.9571 477.91129 1051.9571 477.26528 C 1051.9571 476.61928 1052.0878 476.0506 1052.3493 475.55841 C 1052.6262 475.06622 1053.0031 474.68134 1053.48 474.40448 C 1053.9721 474.11224 1054.5261 473.96626 1055.1414 473.96626 z " /><path
         d="m 987.33841,391.68942 v 96.70117 h 0.79297 v -96.70117 z"
         id="path9" /></g></g></svg>
