<?xml version="1.0" encoding="UTF-8" standalone="no"?>
<!-- Created with Inkscape (http://www.inkscape.org/) -->

<svg
   width="123.80847mm"
   height="110.57636mm"
   viewBox="0 0 123.80847 110.57636"
   version="1.1"
   id="svg1"
   xml:space="preserve"
   xmlns="http://www.w3.org/2000/svg"
   xmlns:svg="http://www.w3.org/2000/svg"><defs
     id="defs1" /><g
     id="layer1"
     transform="translate(-838.73238,-345.22424)"><g
       id="logoLight"
       style="fill:#3c8f49;fill-opacity:1"
       transform="translate(0,-1.0583333)"><path
         id="logoLightCompact"
         d="m 914.40632,346.2828 c -9.07232,-0.037 -18.16077,4.50973 -23.59185,13.32994 -4.44291,-0.40154 -9.18577,0.65074 -13.28187,3.14606 -0.19958,-0.063 -0.386,-0.13961 -0.59325,-0.19482 -4.15507,-1.10691 -9.55386,-1.05265 -18.86138,-1.05265 h -19.34559 v 65.96083 h 19.34559 c 9.30003,0 14.60525,0.0958 17.57412,0.88677 2.96891,0.7909 3.92802,1.85954 5.95519,5.37073 h 4.32997 c 2.02719,-3.51118 2.98632,-4.57983 5.95519,-5.37073 2.9689,-0.79091 8.2741,-0.88677 17.57413,-0.88677 h 19.34765 v -39.4255 c 2.20602,-0.96535 3.74913,-3.16655 3.74913,-5.7273 0,-3.44997 -2.79975,-6.25026 -6.24975,-6.25026 -3.45,0 -6.25026,2.80029 -6.25026,6.25026 0,2.50579 1.54418,4.73444 3.75119,5.71697 v 34.43562 h -14.34796 c -9.30752,0 -14.70629,-0.0522 -18.86139,1.05472 -1.68013,0.44759 -3.08976,1.17369 -4.33203,2.12493 v -30.09738 c 2.20619,-0.96528 3.74964,-3.16645 3.74964,-5.7273 0,-3.45 -2.80029,-6.25027 -6.25026,-6.25027 -3.45,0 -6.24975,2.80027 -6.24975,6.25027 0,2.50564 1.54386,4.73436 3.75067,5.71696 v 30.10876 c -1.24297,-0.95168 -2.65343,-1.67825 -4.3341,-2.12597 -4.15507,-1.10691 -9.55386,-1.05472 -18.86138,-1.05472 h -14.34589 v -55.96092 h 14.34589 c 6.72774,0 11.3425,0.0532 14.51694,0.37982 -1.47176,1.66752 -2.74296,3.6089 -3.71398,5.84874 -7.32247,0.29361 -14.97884,6.11679 -14.97893,15.62488 7e-5,8.62387 6.9222,15.71687 15.45539,15.71687 h 8.74003 v -6.75204 c -1.872,-1.44809 -3.19335,-3.59102 -3.6034,-5.92574 -1.13666,-5.27566 3.48028,-10.98266 8.91574,-10.99416 2.569,-0.0997 5.14687,0.93508 6.97425,2.73472 2.07735,1.89312 3.06302,4.85146 2.72128,7.64191 -0.25024,2.51187 -1.53668,5.05239 -3.65611,6.58823 v 6.70708 h 31.18931 V 389.8295 c -1.82688,-1.43176 -3.15378,-3.51515 -3.57704,-5.80533 -1.22654,-5.3583 3.42117,-11.09522 8.89145,-11.12232 2.83288,-0.10439 5.65332,1.14533 7.49618,3.29489 3.5787,3.79719 2.75416,10.63592 -1.45882,13.66997 v 14.21463 h 8.61911 c 12.11056,0 21.93148,-10.0526 21.93148,-22.32628 3e-5,-14.50454 -12.76479,-23.55019 -24.66413,-21.98006 -5.36652,-8.84578 -14.40883,-13.45529 -23.4704,-13.4922 z" /><path
         id="logoLightText"
         d="m 883.47734,439.29773 6.99957,17.31419 h 1.97869 l 7.04919,-17.31419 h -3.0422 l -4.9692,12.63489 -4.92477,-12.63489 z m 18.50068,0 v 17.31419 h 2.84479 v -7.34632 h 0.73329 l 5.92005,7.34632 h 3.58634 l -6.0818,-7.37164 c 0.87249,-0.0568 1.65865,-0.24848 2.34715,-0.59273 0.82447,-0.41223 1.45906,-0.98965 1.90427,-1.73168 0.46171,-0.74202 0.69298,-1.61568 0.69298,-2.62154 0,-0.95639 -0.23127,-1.80562 -0.69298,-2.54765 -0.44521,-0.75851 -1.0798,-1.35256 -1.90427,-1.78129 -0.82448,-0.44521 -1.78077,-0.66766 -2.86908,-0.66766 h -3.63595 z m 15.18719,0 v 17.31419 h 2.84427 8.80514 v -2.59726 h -8.80514 v -4.99607 h 7.96437 v -2.49856 h -7.96437 v -4.62504 h 8.68164 v -2.59726 h -8.68164 z m -78.43243,0.29663 v 17.01756 h 1.80558 v -13.5201 l 9.96838,13.5201 h 1.28571 v -17.01756 h -1.83038 v 13.517 l -9.94306,-13.517 z m 66.09003,2.17661 h 3.51193 c 0.87394,0 1.5501,0.24739 2.0283,0.74207 0.47819,0.49469 0.71727,1.10485 0.71727,1.83038 0,0.80799 -0.24739,1.44309 -0.74208,1.90479 -0.47819,0.44522 -1.15384,0.66766 -2.02778,0.66766 h -3.48764 z m -44.10119,2.96829 c -1.0883,0 -2.06955,0.27234 -2.94349,0.81649 -0.87394,0.52766 -1.56622,1.2532 -2.07739,2.17661 -0.49469,0.90692 -0.74207,1.93754 -0.74207,3.0918 0,1.13777 0.24738,2.16008 0.74207,3.067 0.51117,0.90692 1.20345,1.63246 2.07739,2.17661 0.87394,0.52767 1.86351,0.79117 2.9683,0.79117 0.87394,0 1.65717,-0.17307 2.34972,-0.51935 0.70905,-0.36277 1.27815,-0.86586 1.70688,-1.50895 0.0456,-0.0659 0.0815,-0.1372 0.1235,-0.20516 v 1.98644 h 1.73116 v -11.62513 h -1.73116 v 1.98179 c -0.042,-0.0665 -0.0778,-0.13676 -0.1235,-0.20102 -0.42873,-0.64308 -0.99783,-1.13787 -1.70688,-1.48415 -0.69255,-0.36276 -1.4841,-0.54415 -2.37453,-0.54415 z m 14.4694,0 c -1.0883,0 -2.06903,0.27234 -2.94297,0.81649 -0.87394,0.52766 -1.56674,1.2532 -2.07791,2.17661 -0.49468,0.90692 -0.74207,1.93754 -0.74207,3.0918 0,1.13777 0.24739,2.16008 0.74207,3.067 0.51117,0.90692 1.20397,1.63246 2.07791,2.17661 0.87394,0.52767 1.86298,0.79117 2.96778,0.79117 0.87394,0 1.65717,-0.17307 2.34973,-0.51935 0.70904,-0.36277 1.27814,-0.86586 1.70687,-1.50895 0.0456,-0.0659 0.0815,-0.1372 0.12351,-0.20516 v 1.98644 h 1.73167 v -11.62513 h -1.73167 v 1.98179 c -0.042,-0.0665 -0.0779,-0.13676 -0.12351,-0.20102 -0.42873,-0.64308 -0.99783,-1.13787 -1.70687,-1.48415 -0.69256,-0.36276 -1.4841,-0.54415 -2.37454,-0.54415 z m -14.19706,1.63246 c 0.80798,0 1.50858,0.1897 2.10219,0.56896 0.61012,0.36277 1.07995,0.88198 1.40974,1.55804 0.34628,0.65958 0.51935,1.4267 0.51935,2.30064 0,1.31915 -0.37057,2.38251 -1.1126,3.1905 -0.72554,0.80799 -1.69067,1.21181 -2.89439,1.21181 -0.82448,0 -1.55781,-0.18918 -2.2009,-0.56844 -0.64309,-0.37926 -1.1545,-0.89898 -1.53376,-1.55856 -0.36277,-0.65957 -0.54415,-1.41786 -0.54415,-2.27531 0,-0.85746 0.18138,-1.61625 0.54415,-2.27583 0.37926,-0.67607 0.88235,-1.20359 1.50895,-1.58285 0.64309,-0.37926 1.37695,-0.56896 2.20142,-0.56896 z m 14.4694,0 c 0.80798,0 1.50857,0.1897 2.1022,0.56896 0.6101,0.36277 1.07994,0.88198 1.40973,1.55804 0.34628,0.65958 0.51986,1.4267 0.51986,2.30064 0,1.31915 -0.37108,2.38251 -1.11311,3.1905 -0.72553,0.80799 -1.69014,1.21181 -2.89388,1.21181 -0.82447,0 -1.55833,-0.18918 -2.20141,-0.56844 -0.6431,-0.37926 -1.15451,-0.89898 -1.53376,-1.55856 -0.36277,-0.65957 -0.54415,-1.41786 -0.54415,-2.27531 0,-0.85746 0.18138,-1.61625 0.54415,-2.27583 0.37925,-0.67607 0.88235,-1.20359 1.50895,-1.58285 0.6431,-0.37926 1.37695,-0.56896 2.20142,-0.56896 z" /></g></g></svg>
