<?xml version="1.0" encoding="UTF-8" standalone="no"?>
<!-- Created with Inkscape (http://www.inkscape.org/) -->

<svg
   width="123.8084mm"
   height="110.57636mm"
   viewBox="0 0 123.8084 110.57636"
   version="1.1"
   id="svg1"
   xml:space="preserve"
   xmlns="http://www.w3.org/2000/svg"
   xmlns:svg="http://www.w3.org/2000/svg"><defs
     id="defs1" /><g
     id="layer1"
     transform="translate(-1006.4635,-345.22424)"><g
       id="logoDark"
       style="fill:#54c164;fill-opacity:1"
       transform="translate(0,-1.0583333)"><path
         id="logoDarkCompact"
         d="m 1082.1374,346.2828 c -9.0723,-0.037 -18.1608,4.50973 -23.5919,13.32994 -4.4429,-0.40154 -9.1857,0.65074 -13.2818,3.14606 -0.1996,-0.063 -0.386,-0.13961 -0.5933,-0.19482 -4.155,-1.10691 -9.5538,-1.05265 -18.8614,-1.05265 h -19.3455 v 65.96083 h 19.3455 c 9.3001,0 14.6053,0.0958 17.5742,0.88677 2.9689,0.7909 3.928,1.85954 5.9552,5.37073 h 4.3299 c 2.0272,-3.51118 2.9864,-4.57983 5.9552,-5.37073 2.9689,-0.79091 8.2741,-0.88677 17.5741,-0.88677 h 19.3477 v -39.4255 c 2.206,-0.96535 3.7491,-3.16655 3.7491,-5.7273 0,-3.44997 -2.7997,-6.25026 -6.2497,-6.25026 -3.45,0 -6.2503,2.80029 -6.2503,6.25026 0,2.50579 1.5442,4.73444 3.7512,5.71697 v 34.43562 h -14.348 c -9.3075,0 -14.7062,-0.0522 -18.8613,1.05472 -1.6802,0.44759 -3.0898,1.17369 -4.3321,2.12493 v -30.09738 c 2.2062,-0.96528 3.7497,-3.16645 3.7497,-5.7273 0,-3.45 -2.8003,-6.25027 -6.2503,-6.25027 -3.45,0 -6.2497,2.80027 -6.2497,6.25027 0,2.50564 1.5438,4.73436 3.7506,5.71696 v 30.10876 c -1.2429,-0.95168 -2.6534,-1.67825 -4.3341,-2.12597 -4.155,-1.10691 -9.5538,-1.05472 -18.8614,-1.05472 h -14.3458 v -55.96092 h 14.3458 c 6.7278,0 11.3425,0.0532 14.517,0.37982 -1.4718,1.66752 -2.743,3.6089 -3.714,5.84874 -7.3225,0.29361 -14.9788,6.11679 -14.9789,15.62488 0,8.62387 6.9222,15.71687 15.4554,15.71687 h 8.74 v -6.75204 c -1.872,-1.44809 -3.1934,-3.59102 -3.6034,-5.92574 -1.1367,-5.27566 3.4803,-10.98266 8.9157,-10.99416 2.569,-0.0997 5.1469,0.93508 6.9743,2.73472 2.0773,1.89312 3.063,4.85146 2.7213,7.64191 -0.2503,2.51187 -1.5367,5.05239 -3.6561,6.58823 v 6.70708 h 31.1893 V 389.8295 c -1.8269,-1.43176 -3.1538,-3.51515 -3.5771,-5.80533 -1.2265,-5.3583 3.4212,-11.09522 8.8915,-11.12232 2.8329,-0.10439 5.6533,1.14533 7.4962,3.29489 3.5787,3.79719 2.7541,10.63592 -1.4589,13.66997 v 14.21463 h 8.6191 c 12.1106,0 21.9315,-10.0526 21.9315,-22.32628 10e-5,-14.50454 -12.7648,-23.55019 -24.6641,-21.98006 -5.3665,-8.84578 -14.4088,-13.45529 -23.4704,-13.4922 z" /><path
         id="logoDarkText"
         d="m 1051.2082,439.29773 6.9996,17.31419 h 1.9787 l 7.0496,-17.31419 h -3.0427 l -4.9686,12.63437 -4.9248,-12.63437 z m 18.5012,0 v 17.31419 h 2.8443 v -7.34632 h 0.7332 l 5.9206,7.34632 h 3.5864 l -6.0824,-7.37164 c 0.8727,-0.0567 1.6586,-0.24843 2.3472,-0.59273 0.8244,-0.41223 1.4596,-0.98965 1.9048,-1.73168 0.4617,-0.74202 0.6924,-1.61568 0.6924,-2.62154 0,-0.95639 -0.2307,-1.80562 -0.6924,-2.54765 -0.4452,-0.75851 -1.0804,-1.35256 -1.9048,-1.78129 -0.8245,-0.44521 -1.7808,-0.66766 -2.8691,-0.66766 h -3.6359 z m 15.1867,0 v 17.31419 h 2.8447 8.8052 v -2.59726 h -8.8052 v -4.99607 h 7.9644 v -2.49856 h -7.9644 v -4.62504 h 8.6817 v -2.59726 h -8.6817 z m -78.432,0.29663 v 17.01756 h 1.8056 v -13.51959 l 9.9679,13.51959 h 1.2862 v -17.01756 h -1.8304 v 13.517 l -9.943,-13.517 z m 66.0896,2.17661 h 3.5124 c 0.8739,0 1.5501,0.24739 2.0283,0.74207 0.4782,0.49469 0.7173,1.10485 0.7173,1.83038 0,0.80799 -0.2474,1.44309 -0.7421,1.90479 -0.4782,0.44522 -1.1544,0.66766 -2.0283,0.66766 h -3.4876 z m -44.1007,2.96829 c -1.0883,0 -2.0696,0.27234 -2.9435,0.81649 -0.8739,0.52766 -1.5667,1.2532 -2.0779,2.17661 -0.4947,0.90692 -0.7421,1.93754 -0.7421,3.0918 0,1.13777 0.2474,2.16008 0.7421,3.067 0.5112,0.90692 1.204,1.63246 2.0779,2.17661 0.8739,0.52767 1.863,0.79117 2.9678,0.79117 0.8739,0 1.6576,-0.17307 2.3502,-0.51935 0.709,-0.36277 1.2776,-0.86586 1.7064,-1.50895 0.046,-0.0659 0.082,-0.1372 0.1235,-0.20516 v 1.98644 h 1.7317 v -11.62513 h -1.7317 v 1.98179 c -0.042,-0.0665 -0.078,-0.13676 -0.1235,-0.20102 -0.4288,-0.64308 -0.9974,-1.13787 -1.7064,-1.48415 -0.6926,-0.36276 -1.4841,-0.54415 -2.3745,-0.54415 z m 14.4694,0 c -1.0883,0 -2.0696,0.27234 -2.9435,0.81649 -0.8739,0.52766 -1.5667,1.2532 -2.0779,2.17661 -0.4947,0.90692 -0.7416,1.93754 -0.7416,3.0918 0,1.13777 0.2469,2.16008 0.7416,3.067 0.5112,0.90692 1.204,1.63246 2.0779,2.17661 0.8739,0.52767 1.8635,0.79117 2.9683,0.79117 0.8739,0 1.6572,-0.17307 2.3497,-0.51935 0.7091,-0.36277 1.2776,-0.86586 1.7064,-1.50895 0.046,-0.0661 0.082,-0.13755 0.124,-0.20568 v 1.98696 h 1.7312 v -11.62513 h -1.7312 v 1.98231 c -0.042,-0.0667 -0.078,-0.13711 -0.124,-0.20154 -0.4288,-0.64308 -0.9973,-1.13787 -1.7064,-1.48415 -0.6925,-0.36276 -1.4841,-0.54415 -2.3745,-0.54415 z m -14.1976,1.63246 c 0.808,0 1.5091,0.1897 2.1027,0.56896 0.6101,0.36277 1.08,0.88198 1.4098,1.55804 0.3462,0.65958 0.5193,1.4267 0.5193,2.30064 0,1.31915 -0.3711,2.38251 -1.1131,3.1905 -0.7255,0.80799 -1.6902,1.21181 -2.8939,1.21181 -0.8245,0 -1.5583,-0.18918 -2.2014,-0.56844 -0.6431,-0.37926 -1.154,-0.89898 -1.5332,-1.55856 -0.3628,-0.65957 -0.5442,-1.41786 -0.5442,-2.27531 0,-0.85746 0.1814,-1.61625 0.5442,-2.27583 0.3792,-0.67607 0.8818,-1.20359 1.5084,-1.58285 0.6431,-0.37926 1.3769,-0.56896 2.2014,-0.56896 z m 14.4694,0 c 0.808,0 1.5091,0.1897 2.1027,0.56896 0.6102,0.36277 1.08,0.88198 1.4098,1.55804 0.3462,0.65958 0.5193,1.4267 0.5193,2.30064 0,1.31915 -0.3711,2.38251 -1.1131,3.1905 -0.7255,0.80799 -1.6902,1.21181 -2.8939,1.21181 -0.8245,0 -1.5583,-0.18918 -2.2014,-0.56844 -0.6431,-0.37926 -1.154,-0.89898 -1.5332,-1.55856 -0.3628,-0.65957 -0.5442,-1.41786 -0.5442,-2.27531 0,-0.85746 0.1814,-1.61625 0.5442,-2.27583 0.3792,-0.67607 0.8818,-1.20359 1.5084,-1.58285 0.6431,-0.37926 1.3769,-0.56896 2.2014,-0.56896 z" /></g></g></svg>
