<?xml version="1.0" encoding="UTF-8" standalone="no"?>
<!-- Created with Inkscape (http://www.inkscape.org/) -->

<svg
   width="123.8084mm"
   height="87.447083mm"
   viewBox="0 0 123.8084 87.447083"
   version="1.1"
   id="svg1"
   xml:space="preserve"
   xmlns="http://www.w3.org/2000/svg"
   xmlns:svg="http://www.w3.org/2000/svg"><defs
     id="defs1" /><g
     id="layer1"
     transform="translate(-1006.4635,-345.22424)"><g
       id="logoDark"
       style="fill:#54c164;fill-opacity:1"
       transform="translate(0,-1.0583333)"><path
         id="logoDarkCompact"
         d="m 1082.1374,346.2828 c -9.0723,-0.037 -18.1608,4.50973 -23.5919,13.32994 -4.4429,-0.40154 -9.1857,0.65074 -13.2818,3.14606 -0.1996,-0.063 -0.386,-0.13961 -0.5933,-0.19482 -4.155,-1.10691 -9.5538,-1.05265 -18.8614,-1.05265 h -19.3455 v 65.96083 h 19.3455 c 9.3001,0 14.6053,0.0958 17.5742,0.88677 2.9689,0.7909 3.928,1.85954 5.9552,5.37073 h 4.3299 c 2.0272,-3.51118 2.9864,-4.57983 5.9552,-5.37073 2.9689,-0.79091 8.2741,-0.88677 17.5741,-0.88677 h 19.3477 v -39.4255 c 2.206,-0.96535 3.7491,-3.16655 3.7491,-5.7273 0,-3.44997 -2.7997,-6.25026 -6.2497,-6.25026 -3.45,0 -6.2503,2.80029 -6.2503,6.25026 0,2.50579 1.5442,4.73444 3.7512,5.71697 v 34.43562 h -14.348 c -9.3075,0 -14.7062,-0.0522 -18.8613,1.05472 -1.6802,0.44759 -3.0898,1.17369 -4.3321,2.12493 v -30.09738 c 2.2062,-0.96528 3.7497,-3.16645 3.7497,-5.7273 0,-3.45 -2.8003,-6.25027 -6.2503,-6.25027 -3.45,0 -6.2497,2.80027 -6.2497,6.25027 0,2.50564 1.5438,4.73436 3.7506,5.71696 v 30.10876 c -1.2429,-0.95168 -2.6534,-1.67825 -4.3341,-2.12597 -4.155,-1.10691 -9.5538,-1.05472 -18.8614,-1.05472 h -14.3458 v -55.96092 h 14.3458 c 6.7278,0 11.3425,0.0532 14.517,0.37982 -1.4718,1.66752 -2.743,3.6089 -3.714,5.84874 -7.3225,0.29361 -14.9788,6.11679 -14.9789,15.62488 0,8.62387 6.9222,15.71687 15.4554,15.71687 h 8.74 v -6.75204 c -1.872,-1.44809 -3.1934,-3.59102 -3.6034,-5.92574 -1.1367,-5.27566 3.4803,-10.98266 8.9157,-10.99416 2.569,-0.0997 5.1469,0.93508 6.9743,2.73472 2.0773,1.89312 3.063,4.85146 2.7213,7.64191 -0.2503,2.51187 -1.5367,5.05239 -3.6561,6.58823 v 6.70708 h 31.1893 V 389.8295 c -1.8269,-1.43176 -3.1538,-3.51515 -3.5771,-5.80533 -1.2265,-5.3583 3.4212,-11.09522 8.8915,-11.12232 2.8329,-0.10439 5.6533,1.14533 7.4962,3.29489 3.5787,3.79719 2.7541,10.63592 -1.4589,13.66997 v 14.21463 h 8.6191 c 12.1106,0 21.9315,-10.0526 21.9315,-22.32628 10e-5,-14.50454 -12.7648,-23.55019 -24.6641,-21.98006 -5.3665,-8.84578 -14.4088,-13.45529 -23.4704,-13.4922 z" /></g></g></svg>
