<?xml version="1.0" encoding="UTF-8" standalone="no"?>
<!-- Created with Inkscape (http://www.inkscape.org/) -->

<svg
   width="1200"
   height="675"
   viewBox="0 0 317.5 178.59375"
   version="1.1"
   id="svg1"
   inkscape:version="1.3 (0e150ed6c4, 2023-07-21)"
   sodipodi:docname="naavre-social-card.svg"
   xml:space="preserve"
   xmlns:inkscape="http://www.inkscape.org/namespaces/inkscape"
   xmlns:sodipodi="http://sodipodi.sourceforge.net/DTD/sodipodi-0.dtd"
   xmlns:xlink="http://www.w3.org/1999/xlink"
   xmlns="http://www.w3.org/2000/svg"
   xmlns:svg="http://www.w3.org/2000/svg"><sodipodi:namedview
     id="namedview1"
     pagecolor="#ffffff"
     bordercolor="#666666"
     borderopacity="1.0"
     inkscape:showpageshadow="2"
     inkscape:pageopacity="0.0"
     inkscape:pagecheckerboard="false"
     inkscape:deskcolor="#d1d1d1"
     inkscape:document-units="mm"
     inkscape:zoom="0.48357644"
     inkscape:cx="689.65312"
     inkscape:cy="378.43035"
     inkscape:current-layer="g1" /><defs
     id="defs1"><linearGradient
       id="swatch12"
       inkscape:swatch="solid"
       inkscape:label="main-logo-color-dark"><stop
         style="stop-color:#54c164;stop-opacity:1;"
         offset="0"
         id="stop12" /></linearGradient><linearGradient
       id="swatch46"
       inkscape:swatch="solid"
       inkscape:label="main-logo-color"><stop
         style="stop-color:#3c8f49;stop-opacity:1;"
         offset="0"
         id="stop46" /></linearGradient><linearGradient
       inkscape:collect="always"
       xlink:href="#swatch46"
       id="linearGradient69"
       gradientUnits="userSpaceOnUse"
       x1="676.27155"
       y1="503.30307"
       x2="766.35339"
       y2="503.30307" /><linearGradient
       inkscape:collect="always"
       xlink:href="#swatch12"
       id="linearGradient70"
       gradientUnits="userSpaceOnUse"
       x1="676.27094"
       y1="456.79547"
       x2="800.07941"
       y2="456.79547" /></defs><g
     inkscape:label="Layer 1"
     inkscape:groupmode="layer"
     id="layer1"
     transform="translate(-838.73238,-346.28258)"><g
       id="g1"
       transform="translate(162.46146,-55.224638)"
       style="fill:#3c8f49;fill-opacity:1"><rect
         style="fill:#ffffff;stroke:none;stroke-width:0.79375;stroke-linejoin:round;stroke-miterlimit:8;paint-order:markers fill stroke;fill-opacity:1"
         id="rect1"
         width="317.5"
         height="178.59375"
         x="676.27094"
         y="401.50723" /><g
         id="g2"
         transform="translate(17.075186,31.362797)"
         style="fill:#3c8f49;fill-opacity:1"><path
           id="path182"
           style="color:#000000;fill:#3c8f49;fill-opacity:1;stroke:none;stroke-linecap:round;stroke-linejoin:round;stroke-miterlimit:8;-inkscape-stroke:none"
           d="m 751.94486,401.50744 c -9.07232,-0.037 -18.16077,4.50973 -23.59185,13.32994 -4.44291,-0.40154 -9.18577,0.65074 -13.28187,3.14606 -0.19958,-0.063 -0.386,-0.13961 -0.59325,-0.19482 -4.15507,-1.10691 -9.55386,-1.05265 -18.86138,-1.05265 h -19.34559 v 65.96083 h 19.34559 c 9.30003,0 14.60525,0.0958 17.57412,0.88677 2.96891,0.7909 3.92802,1.85954 5.95519,5.37073 h 4.32997 c 2.02719,-3.51118 2.98632,-4.57983 5.95519,-5.37073 2.9689,-0.79091 8.2741,-0.88677 17.57413,-0.88677 h 19.34765 v -39.4255 c 2.20602,-0.96535 3.74913,-3.16655 3.74913,-5.7273 0,-3.44997 -2.79975,-6.25026 -6.24975,-6.25026 -3.45,0 -6.25026,2.80029 -6.25026,6.25026 0,2.50579 1.54418,4.73444 3.75119,5.71697 v 34.43562 h -14.34796 c -9.30752,0 -14.70629,-0.0522 -18.86139,1.05472 -1.68013,0.44759 -3.08976,1.17369 -4.33203,2.12493 v -30.09738 c 2.20619,-0.96528 3.74964,-3.16645 3.74964,-5.7273 0,-3.45 -2.80029,-6.25027 -6.25026,-6.25027 -3.45,0 -6.24975,2.80027 -6.24975,6.25027 0,2.50564 1.54386,4.73436 3.75067,5.71696 v 30.10876 c -1.24297,-0.95168 -2.65343,-1.67825 -4.3341,-2.12597 -4.15507,-1.10691 -9.55386,-1.05472 -18.86138,-1.05472 h -14.34589 v -55.96092 h 14.34589 c 6.72774,0 11.3425,0.0532 14.51694,0.37982 -1.47176,1.66752 -2.74296,3.6089 -3.71398,5.84874 -7.32247,0.29361 -14.97884,6.11679 -14.97893,15.62488 7e-5,8.62387 6.9222,15.71687 15.45539,15.71687 h 8.74003 v -6.75204 c -1.872,-1.44809 -3.19335,-3.59102 -3.6034,-5.92574 -1.13666,-5.27566 3.48028,-10.98266 8.91574,-10.99416 2.569,-0.0997 5.14687,0.93508 6.97425,2.73472 2.07735,1.89312 3.06302,4.85146 2.72128,7.64191 -0.25024,2.51187 -1.53668,5.05239 -3.65611,6.58823 v 6.70708 h 31.18931 v -14.25184 c -1.82688,-1.43176 -3.15378,-3.51515 -3.57704,-5.80533 -1.22654,-5.3583 3.42117,-11.09522 8.89145,-11.12232 2.83288,-0.10439 5.65332,1.14533 7.49618,3.29489 3.5787,3.79719 2.75416,10.63592 -1.45882,13.66997 v 14.21463 h 8.61911 c 12.11056,0 21.93148,-10.0526 21.93148,-22.32628 3e-5,-14.50454 -12.76479,-23.55019 -24.66413,-21.98006 -5.36652,-8.84578 -14.40883,-13.45529 -23.4704,-13.4922 z" /><text
           xml:space="preserve"
           style="font-style:normal;font-variant:normal;font-weight:normal;font-stretch:normal;font-size:24.7342px;line-height:2%;font-family:Outfit;-inkscape-font-specification:Outfit;letter-spacing:0px;word-spacing:0px;fill:#3c8f49;fill-opacity:1;stroke-width:0.264583"
           x="674.09491"
           y="511.83636"
           id="text194"><tspan
             sodipodi:role="line"
             id="tspan194"
             style="font-style:normal;font-variant:normal;font-weight:normal;font-stretch:normal;font-family:Outfit;-inkscape-font-specification:Outfit;fill:#3c8f49;fill-opacity:1;stroke-width:0.264583"
             x="674.09491"
             y="511.83636"><tspan
               style="font-style:normal;font-variant:normal;font-weight:300;font-stretch:normal;font-family:Outfit;-inkscape-font-specification:'Outfit Light';fill:#3c8f49;fill-opacity:1;stroke-width:0.264583"
               id="tspan195">Naa</tspan><tspan
               style="font-style:normal;font-variant:normal;font-weight:500;font-stretch:normal;font-family:Outfit;-inkscape-font-specification:'Outfit Medium';fill:#3c8f49;fill-opacity:1;stroke-width:0.264583"
               id="tspan196">VRE</tspan></tspan></text></g><text
         xml:space="preserve"
         style="font-size:23.0716px;line-height:100%;font-family:'Proxima Nova';-inkscape-font-specification:'Proxima Nova';letter-spacing:0px;word-spacing:0px;fill:#5e5e5e;fill-opacity:1;stroke-width:0.264583"
         x="833.63953"
         y="468.58295"
         id="text1"><tspan
           sodipodi:role="line"
           style="font-style:normal;font-variant:normal;font-weight:300;font-stretch:normal;line-height:100%;font-family:Outfit;-inkscape-font-specification:'Outfit Light';fill:#5e5e5e;fill-opacity:1;stroke-width:0.264583"
           x="833.63953"
           y="468.58295"
           id="tspan6">Notebook as a </tspan><tspan
           sodipodi:role="line"
           style="font-style:normal;font-variant:normal;font-weight:500;font-stretch:normal;line-height:100%;font-family:Outfit;-inkscape-font-specification:'Outfit Medium';fill:#5e5e5e;fill-opacity:1;stroke-width:0.264583"
           x="833.63953"
           y="491.73877"
           id="tspan3">Virtual</tspan><tspan
           sodipodi:role="line"
           style="font-style:normal;font-variant:normal;font-weight:500;font-stretch:normal;line-height:100%;font-family:Outfit;-inkscape-font-specification:'Outfit Medium';fill:#5e5e5e;fill-opacity:1;stroke-width:0.264583"
           x="833.63953"
           y="514.89459"
           id="tspan5">Research</tspan><tspan
           sodipodi:role="line"
           style="font-style:normal;font-variant:normal;font-weight:500;font-stretch:normal;line-height:100%;font-family:Outfit;-inkscape-font-specification:'Outfit Medium';fill:#5e5e5e;fill-opacity:1;stroke-width:0.264583"
           x="833.63953"
           y="538.05042"
           id="tspan4">Environment</tspan></text><path
         style="fill:none;fill-opacity:1;stroke:#5e5e5e;stroke-width:0.79375;stroke-linejoin:round;stroke-miterlimit:8;stroke-dasharray:none;stroke-opacity:1;paint-order:markers fill stroke"
         d="m 825.27357,446.91395 v 96.70156"
         id="path7" /></g></g></svg>
